{"title":"Straight.Outta.Compton.2015.BRRip.720p.x264.AAC-PRiSTiNE [P2PDL]","uid":13155401,"size":1243522456,"categoryP":"video","categoryS":"hd___movies","magnet":"?xt=urn:btih:a70250602e59543e3f0e1abd1083344ce14ea679&amp;dn=Straight.Outta.Compton.2015.BRRip.720p.x264.AAC-PRiSTiNE+%5BP2PDL%5D&amp;tr=udp%3A%2F%2Ftracker.leechers-paradise.org%3A6969&amp;tr=udp%3A%2F%2Fzer0day.ch%3A1337&amp;tr=udp%3A%2F%2Fopen.demonii.com%3A1337&amp;tr=udp%3A%2F%2Ftracker.coppersurfer.tk%3A6969&amp;tr=udp%3A%2F%2Fexodus.desync.com%3A6969","seeders":0,"leechers":1,"uploader":"VYTOP2PDL","files":7,"time":1452095186,"description":"Straight.Outta.Compton.2015.BRRip.720p.x264.AAC-PRiSTiNE\r\n\r\n\r\nGenre: Biography, Drama, Music \nhttp://www.imdb.com/title/tt1398426/\r\n\r\n\r\nFormat                                   : MPEG-4\r\nFile size                                : 1.14 GiB\r\nDuration                                 : 2h 46mn\r\nOverall bit rate                         : 982 Kbps\r\n\r\nVideo\r\nFormat                                   : AVC\r\nBit rate                                 : 850 Kbps\r\nWidth                                    : 1 280 pixels\r\nHeight                                   : 536 pixels\r\nDisplay aspect ratio                     : 2.40:1\r\nFrame rate mode                          : Constant\r\nFrame rate                               : 23.976 fps\r\nBit depth                                : 8 bits\r\nStream size                              : 1 014 MiB (87%)\r\nWriting library                          : x264\r\n\r\nAudio\r\nFormat                                   : AAC\r\nBit rate mode                            : Variable\r\nBit rate                                 : 128 Kbps\r\nChannel(s)                               : 2 channels\r\nChannel positions                        : Front: L R\r\nSampling rate                            : 48.0 KHz\r\nStream size                              : 153 MiB (13%)\r\nLanguage                                 : English\r\n\r\nSubtitle                                 : Yes (English)\r\n\r\nScreen Shots: (Click to view)\r\n \nhttp://ititli.com/pa \nhttp://ititli.com/pb \nhttp://ititli.com/pz \nhttp://ititli.com/pI \nhttp://ititli.com/pO \nhttp://ititli.com/D9 \nhttp://ititli.com/DX \nhttp://ititli.com/Dq \nhttp://ititli.com/Dr\r\n----------------------------------------------------------------------------------------------------\r\n\r\n\r\nEncoder Notes: Looking For Early Access To Anything You Can Provide WEBDL, DVDScr, DVDR, BluRay,\r\nDirect Audio, Music Releases and Seedboxes. If You Got anything to offer please contact us.\r\n\r\nSupport us by donating BC - 1FgwdzPsd1y25Gea8wP1qni35uGCtmkRCD\r\n\r\nSend some love!\r\nFind us and join us!\r\n\r\nTry all new image sharing/hosting service at:    \nhttp://ititli.com/","torrent":{"xt":"urn:btih:a70250602e59543e3f0e1abd1083344ce14ea679","amp;dn":"Straight.Outta.Compton.2015.BRRip.720p.x264.AAC-PRiSTiNE+%5BP2PDL%5D","amp;tr":["udp%3A%2F%2Ftracker.leechers-paradise.org%3A6969","udp%3A%2F%2Fzer0day.ch%3A1337","udp%3A%2F%2Fopen.demonii.com%3A1337","udp%3A%2F%2Ftracker.coppersurfer.tk%3A6969","udp%3A%2F%2Fexodus.desync.com%3A6969"],"infoHash":"a70250602e59543e3f0e1abd1083344ce14ea679","infoHashBuffer":{"type":"Buffer","data":[167,2,80,96,46,89,84,62,63,14,26,189,16,131,52,76,225,78,166,121]},"announce":[],"urlList":[]}}